<svg width="91" height="29" viewBox="0 0 91 29" fill="none" xmlns="http://www.w3.org/2000/svg">
<path d="M9.85199 17.4246L7.32505 14.91M18.1107 18.6573L15.0784 15.6249M2 26.916C2 26.916 14.1663 22.6017 17.6916 19.0764C18.2072 18.5616 18.6163 17.9503 18.8957 17.2775C19.175 16.6046 19.3191 15.8833 19.3196 15.1547C19.3202 14.4262 19.1773 13.7047 18.899 13.0313C18.6207 12.358 18.2126 11.7461 17.6978 11.2305C17.1831 10.715 16.5718 10.3058 15.8989 10.0265C15.226 9.74718 14.5047 9.60311 13.7762 9.60254C13.0476 9.60197 12.3261 9.7449 11.6528 10.0232C10.9795 10.3015 10.3676 10.7096 9.85199 11.2244C6.31428 14.7621 2 26.916 2 26.916Z" stroke="url(#paint0_linear_553_934)" stroke-width="2.4653" stroke-linecap="round" stroke-linejoin="round"/>
<path d="M27.0005 11.4554C27.0005 11.4554 25.2319 8.7959 22.3464 8.7959C20.1657 8.7959 17.6924 11.4554 17.6924 11.4554C17.6924 11.4554 19.4609 14.1148 22.3464 14.1148C25.2319 14.1148 27.0005 11.4554 27.0005 11.4554Z" stroke="url(#paint1_linear_553_934)" stroke-width="2.65945" stroke-linecap="round" stroke-linejoin="round"/>
<path d="M17.8728 2C17.8728 2 15.2266 3.75973 15.2266 6.63087C15.2266 9.50201 17.8728 11.2617 17.8728 11.2617C17.8728 11.2617 20.519 8.82723 20.519 6.63087C20.519 3.75973 17.8728 2 17.8728 2Z" stroke="url(#paint2_linear_553_934)" stroke-width="2.64621" stroke-linecap="round" stroke-linejoin="round"/>
<path d="M40.29 21.138C39.342 21.138 38.466 20.982 37.662 20.67C36.87 20.346 36.18 19.896 35.592 19.32C35.016 18.732 34.566 18.042 34.242 17.25C33.93 16.446 33.774 15.57 33.774 14.622C33.774 13.686 33.936 12.822 34.26 12.03C34.596 11.238 35.064 10.548 35.664 9.96001C36.264 9.37201 36.966 8.91601 37.77 8.59201C38.586 8.26801 39.468 8.10601 40.416 8.10601C41.016 8.10601 41.604 8.18401 42.18 8.34001C42.756 8.49601 43.29 8.73001 43.782 9.04201C44.286 9.34201 44.718 9.70801 45.078 10.14L43.188 12.282C42.816 11.874 42.396 11.556 41.928 11.328C41.472 11.1 40.962 10.986 40.398 10.986C39.918 10.986 39.462 11.07 39.03 11.238C38.61 11.406 38.244 11.652 37.932 11.976C37.62 12.3 37.374 12.684 37.194 13.128C37.014 13.572 36.924 14.076 36.924 14.64C36.924 15.192 37.008 15.696 37.176 16.152C37.356 16.596 37.608 16.98 37.932 17.304C38.268 17.616 38.664 17.856 39.12 18.024C39.588 18.192 40.104 18.276 40.668 18.276C41.04 18.276 41.394 18.228 41.73 18.132C42.078 18.024 42.402 17.874 42.702 17.682C43.002 17.49 43.26 17.274 43.476 17.034L44.97 19.41C44.682 19.734 44.286 20.028 43.782 20.292C43.29 20.556 42.738 20.766 42.126 20.922C41.526 21.066 40.914 21.138 40.29 21.138ZM51.8525 20.958V15.09C51.8525 14.598 51.7145 14.238 51.4385 14.01C51.1745 13.77 50.8025 13.65 50.3225 13.65C49.8545 13.65 49.4345 13.74 49.0625 13.92C48.7025 14.088 48.3545 14.37 48.0185 14.766L46.2905 13.092C46.8665 12.504 47.5265 12.042 48.2705 11.706C49.0145 11.37 49.8245 11.202 50.7005 11.202C51.5045 11.202 52.2005 11.322 52.7885 11.562C53.3765 11.802 53.8325 12.168 54.1565 12.66C54.4805 13.152 54.6425 13.776 54.6425 14.532V20.958H51.8525ZM49.3685 21.138C48.7685 21.138 48.2225 21.018 47.7305 20.778C47.2505 20.538 46.8665 20.208 46.5785 19.788C46.3025 19.356 46.1645 18.852 46.1645 18.276C46.1645 17.784 46.2545 17.352 46.4345 16.98C46.6145 16.608 46.8785 16.302 47.2265 16.062C47.5865 15.81 48.0305 15.624 48.5585 15.504C49.0985 15.372 49.7225 15.306 50.4305 15.306H53.3285L53.1665 17.124H50.5025C50.2505 17.124 50.0285 17.148 49.8365 17.196C49.6445 17.232 49.4825 17.298 49.3505 17.394C49.2185 17.478 49.1165 17.58 49.0445 17.7C48.9845 17.82 48.9545 17.964 48.9545 18.132C48.9545 18.312 49.0025 18.468 49.0985 18.6C49.1945 18.732 49.3205 18.834 49.4765 18.906C49.6445 18.978 49.8365 19.014 50.0525 19.014C50.3645 19.014 50.6585 18.966 50.9345 18.87C51.2225 18.762 51.4745 18.612 51.6905 18.42C51.9185 18.228 52.0985 18.006 52.2305 17.754L52.7345 19.05C52.4825 19.458 52.1765 19.818 51.8165 20.13C51.4685 20.442 51.0845 20.688 50.6645 20.868C50.2565 21.048 49.8245 21.138 49.3685 21.138ZM56.9538 20.958V11.4H59.7078L59.8338 14.514L59.2938 13.902C59.4498 13.398 59.6898 12.942 60.0138 12.534C60.3378 12.126 60.7218 11.802 61.1658 11.562C61.6218 11.322 62.0958 11.202 62.5878 11.202C62.8038 11.202 63.0018 11.22 63.1818 11.256C63.3738 11.28 63.5418 11.322 63.6858 11.382L62.9118 14.568C62.7798 14.496 62.5998 14.436 62.3718 14.388C62.1558 14.328 61.9278 14.298 61.6878 14.298C61.4238 14.298 61.1778 14.346 60.9498 14.442C60.7338 14.526 60.5418 14.652 60.3738 14.82C60.2178 14.988 60.0918 15.186 59.9958 15.414C59.9118 15.642 59.8698 15.9 59.8698 16.188V20.958H56.9538ZM65.1628 20.958V11.4H67.9168L68.0428 14.514L67.5028 13.902C67.6588 13.398 67.8988 12.942 68.2228 12.534C68.5468 12.126 68.9308 11.802 69.3748 11.562C69.8308 11.322 70.3048 11.202 70.7968 11.202C71.0128 11.202 71.2108 11.22 71.3908 11.256C71.5828 11.28 71.7508 11.322 71.8948 11.382L71.1208 14.568C70.9888 14.496 70.8088 14.436 70.5808 14.388C70.3648 14.328 70.1368 14.298 69.8968 14.298C69.6328 14.298 69.3868 14.346 69.1588 14.442C68.9428 14.526 68.7508 14.652 68.5828 14.82C68.4268 14.988 68.3008 15.186 68.2048 15.414C68.1208 15.642 68.0788 15.9 68.0788 16.188V20.958H65.1628ZM77.4495 21.138C76.4655 21.138 75.5835 20.928 74.8035 20.508C74.0235 20.076 73.4115 19.488 72.9675 18.744C72.5235 17.988 72.3015 17.136 72.3015 16.188C72.3015 15.216 72.5235 14.358 72.9675 13.614C73.4115 12.858 74.0235 12.27 74.8035 11.85C75.5835 11.418 76.4655 11.202 77.4495 11.202C78.4455 11.202 79.3275 11.418 80.0955 11.85C80.8755 12.27 81.4875 12.858 81.9315 13.614C82.3755 14.358 82.5975 15.216 82.5975 16.188C82.5975 17.136 82.3755 17.988 81.9315 18.744C81.4875 19.488 80.8755 20.076 80.0955 20.508C79.3275 20.928 78.4455 21.138 77.4495 21.138ZM77.4495 18.654C77.8815 18.654 78.2595 18.546 78.5835 18.33C78.9195 18.114 79.1835 17.82 79.3755 17.448C79.5675 17.076 79.6575 16.656 79.6455 16.188C79.6575 15.696 79.5675 15.264 79.3755 14.892C79.1835 14.508 78.9195 14.214 78.5835 14.01C78.2595 13.794 77.8815 13.686 77.4495 13.686C77.0295 13.686 76.6515 13.794 76.3155 14.01C75.9795 14.226 75.7155 14.52 75.5235 14.892C75.3315 15.264 75.2355 15.696 75.2355 16.188C75.2355 16.656 75.3315 17.076 75.5235 17.448C75.7155 17.82 75.9795 18.114 76.3155 18.33C76.6515 18.546 77.0295 18.654 77.4495 18.654ZM85.2731 20.958V8.98801H88.1711V20.958H85.2731ZM83.5811 13.938V11.4H90.0071V13.938H83.5811Z" fill="black"/>
<defs>
<linearGradient id="paint0_linear_553_934" x1="10.6598" y1="9.60254" x2="10.6598" y2="26.916" gradientUnits="userSpaceOnUse">
<stop stop-color="#FF6900"/>
<stop offset="1" stop-color="#EFB100"/>
</linearGradient>
<linearGradient id="paint1_linear_553_934" x1="22.3464" y1="8.7959" x2="22.3464" y2="14.1148" gradientUnits="userSpaceOnUse">
<stop stop-color="#FF6900"/>
<stop offset="1" stop-color="#EFB100"/>
</linearGradient>
<linearGradient id="paint2_linear_553_934" x1="17.8728" y1="2" x2="17.8728" y2="11.2617" gradientUnits="userSpaceOnUse">
<stop stop-color="#FF6900"/>
<stop offset="1" stop-color="#EFB100"/>
</linearGradient>
</defs>
</svg>
