<svg xmlns="http://www.w3.org/2000/svg" width="19525" height="6283" fill="none" viewBox="0 0 19525 6283"><path stroke="url(#paint0_linear_560_922)" stroke-linecap="round" stroke-linejoin="round" stroke-width="526.37" d="M1940.49 3774.9L1400.96 3238M3703.82 4038.09L3056.39 3390.65M264 5801.42C264 5801.42 2861.63 4880.28 3614.34 4127.57C3724.42 4017.66 3811.78 3887.15 3871.42 3743.48C3931.06 3599.82 3961.82 3445.81 3961.94 3290.26C3962.06 3134.7 3931.54 2980.65 3872.13 2836.89C3812.71 2693.13 3725.56 2562.48 3615.66 2452.4C3505.75 2342.32 3375.24 2254.96 3231.57 2195.32C3087.91 2135.68 2933.9 2104.92 2778.34 2104.8C2622.79 2104.68 2468.74 2135.2 2324.98 2194.61C2181.22 2254.03 2050.57 2341.18 1940.49 2451.08C1185.15 3206.42 264 5801.42 264 5801.42Z"/><path stroke="url(#paint1_linear_560_922)" stroke-linecap="round" stroke-linejoin="round" stroke-width="567.823" d="M5601.88 2500.39C5601.88 2500.39 5224.28 1932.57 4608.19 1932.57C4142.57 1932.57 3614.5 2500.39 3614.5 2500.39C3614.5 2500.39 3992.1 3068.21 4608.19 3068.21C5224.28 3068.21 5601.88 2500.39 5601.88 2500.39Z"/><path stroke="url(#paint2_linear_560_922)" stroke-linecap="round" stroke-linejoin="round" stroke-width="564.996" d="M3653.01 481.569C3653.01 481.569 3088.02 857.292 3088.02 1470.31C3088.02 2083.33 3653.01 2459.06 3653.01 2459.06C3653.01 2459.06 4218.01 1939.26 4218.01 1470.31C4218.01 857.292 3653.01 481.569 3653.01 481.569Z"/><path fill="#000" d="M8826.52 3881.43C8624.11 3881.43 8437.07 3848.12 8265.41 3781.51C8096.31 3712.33 7948.99 3616.25 7823.44 3493.27C7700.46 3367.72 7604.38 3220.4 7535.2 3051.3C7468.59 2879.64 7435.28 2692.6 7435.28 2490.19C7435.28 2290.35 7469.87 2105.87 7539.05 1936.77C7610.79 1767.67 7710.71 1620.35 7838.82 1494.8C7966.92 1369.26 8116.81 1271.9 8288.47 1202.72C8462.7 1133.54 8651.01 1098.95 8853.42 1098.95C8981.53 1098.95 9107.07 1115.61 9230.06 1148.92C9353.04 1182.22 9467.05 1232.19 9572.1 1298.8C9679.71 1362.85 9771.95 1441 9848.81 1533.24L9445.27 1990.58C9365.85 1903.46 9276.17 1835.57 9176.25 1786.89C9078.89 1738.21 8970 1713.87 8849.58 1713.87C8747.09 1713.87 8649.73 1731.8 8557.49 1767.67C8467.82 1803.54 8389.68 1856.06 8323.06 1925.24C8256.44 1994.42 8203.92 2076.41 8165.49 2171.21C8127.06 2266.01 8107.84 2373.62 8107.84 2494.04C8107.84 2611.89 8125.78 2719.5 8161.65 2816.87C8200.08 2911.66 8253.88 2993.65 8323.06 3062.83C8394.8 3129.45 8479.35 3180.69 8576.71 3216.56C8676.63 3252.43 8786.81 3270.36 8907.23 3270.36C8986.65 3270.36 9062.24 3260.11 9133.98 3239.62C9208.28 3216.56 9277.45 3184.53 9341.51 3143.54C9405.56 3102.54 9460.65 3056.42 9506.77 3005.18L9825.75 3512.48C9764.26 3581.66 9679.71 3644.43 9572.1 3700.8C9467.05 3757.17 9349.19 3802.01 9218.53 3835.31C9090.42 3866.06 8959.75 3881.43 8826.52 3881.43ZM11295.2 3843V2590.12C11295.2 2485.07 11265.8 2408.2 11206.8 2359.52C11150.5 2308.28 11071 2282.66 10968.6 2282.66C10868.6 2282.66 10779 2301.88 10699.5 2340.31C10622.7 2376.18 10548.4 2436.39 10476.6 2520.94L10107.7 2163.52C10230.7 2037.98 10371.6 1939.33 10530.4 1867.59C10689.3 1795.85 10862.2 1759.98 11049.3 1759.98C11220.9 1759.98 11369.5 1785.61 11495.1 1836.85C11620.6 1888.09 11718 1966.24 11787.2 2071.28C11856.3 2176.33 11890.9 2309.56 11890.9 2470.98V3843H11295.2ZM10764.9 3881.43C10636.8 3881.43 10520.2 3855.81 10415.1 3804.57C10312.7 3753.33 10230.7 3682.87 10169.2 3593.19C10110.2 3500.96 10080.8 3393.35 10080.8 3270.36C10080.8 3165.32 10100 3073.08 10138.4 2993.65C10176.9 2914.23 10233.2 2848.89 10307.5 2797.65C10384.4 2743.84 10479.2 2704.13 10591.9 2678.51C10707.2 2650.33 10840.5 2636.23 10991.6 2636.23H11610.4L11575.8 3024.4H11007C10953.2 3024.4 10905.8 3029.52 10864.8 3039.77C10823.8 3047.46 10789.2 3061.55 10761 3082.05C10732.8 3099.98 10711.1 3121.76 10695.7 3147.38C10682.9 3173 10676.5 3203.75 10676.5 3239.62C10676.5 3278.05 10686.7 3311.36 10707.2 3339.54C10727.7 3367.72 10754.6 3389.5 10787.9 3404.88C10823.8 3420.25 10864.8 3427.93 10910.9 3427.93C10977.5 3427.93 11040.3 3417.69 11099.2 3397.19C11160.7 3374.13 11214.5 3342.1 11260.6 3301.11C11309.3 3260.11 11347.8 3212.71 11375.9 3158.91L11483.6 3435.62C11429.7 3522.73 11364.4 3599.6 11287.5 3666.21C11213.2 3732.83 11131.3 3785.35 11041.6 3823.78C10954.5 3862.22 10862.2 3881.43 10764.9 3881.43ZM12384.4 3843V1802.26H12972.4L12999.3 2467.13L12884 2336.47C12917.3 2228.86 12968.6 2131.49 13037.8 2044.38C13106.9 1957.27 13188.9 1888.09 13283.7 1836.85C13381.1 1785.61 13482.3 1759.98 13587.3 1759.98C13633.5 1759.98 13675.7 1763.83 13714.2 1771.51C13755.2 1776.64 13791 1785.61 13821.8 1798.42L13656.5 2478.66C13628.3 2463.29 13589.9 2450.48 13541.2 2440.23C13495.1 2427.42 13446.4 2421.02 13395.2 2421.02C13338.8 2421.02 13286.3 2431.26 13237.6 2451.76C13191.5 2469.7 13150.5 2496.6 13114.6 2532.47C13081.3 2568.34 13054.4 2610.61 13033.9 2659.29C13016 2707.97 13007 2763.06 13007 2824.55V3843H12384.4ZM14137.1 3843V1802.26H14725.1L14752 2467.13L14636.7 2336.47C14670.1 2228.86 14721.3 2131.49 14790.5 2044.38C14859.7 1957.27 14941.6 1888.09 15036.4 1836.85C15133.8 1785.61 15235 1759.98 15340.1 1759.98C15386.2 1759.98 15428.4 1763.83 15466.9 1771.51C15507.9 1776.64 15543.7 1785.61 15574.5 1798.42L15409.2 2478.66C15381 2463.29 15342.6 2450.48 15293.9 2440.23C15247.8 2427.42 15199.1 2421.02 15147.9 2421.02C15091.5 2421.02 15039 2431.26 14990.3 2451.76C14944.2 2469.7 14903.2 2496.6 14867.3 2532.47C14834 2568.34 14807.1 2610.61 14786.6 2659.29C14768.7 2707.97 14759.7 2763.06 14759.7 2824.55V3843H14137.1ZM16760.5 3881.43C16550.4 3881.43 16362.1 3836.59 16195.5 3746.92C16029 3654.68 15898.3 3529.14 15803.5 3370.29C15708.7 3208.87 15661.3 3026.96 15661.3 2824.55C15661.3 2617.02 15708.7 2433.83 15803.5 2274.97C15898.3 2113.56 16029 1988.01 16195.5 1898.34C16362.1 1806.1 16550.4 1759.98 16760.5 1759.98C16973.1 1759.98 17161.5 1806.1 17325.4 1898.34C17492 1988.01 17622.6 2113.56 17717.4 2274.97C17812.2 2433.83 17859.6 2617.02 17859.6 2824.55C17859.6 3026.96 17812.2 3208.87 17717.4 3370.29C17622.6 3529.14 17492 3654.68 17325.4 3746.92C17161.5 3836.59 16973.1 3881.43 16760.5 3881.43ZM16760.5 3351.07C16852.7 3351.07 16933.4 3328.01 17002.6 3281.89C17074.3 3235.77 17130.7 3173 17171.7 3093.58C17212.7 3014.15 17231.9 2924.47 17229.3 2824.55C17231.9 2719.5 17212.7 2627.27 17171.7 2547.84C17130.7 2465.85 17074.3 2403.08 17002.6 2359.52C16933.4 2313.41 16852.7 2290.35 16760.5 2290.35C16670.8 2290.35 16590.1 2313.41 16518.4 2359.52C16446.6 2405.64 16390.2 2468.41 16349.3 2547.84C16308.3 2627.27 16287.8 2719.5 16287.8 2824.55C16287.8 2924.47 16308.3 3014.15 16349.3 3093.58C16390.2 3173 16446.6 3235.77 16518.4 3281.89C16590.1 3328.01 16670.8 3351.07 16760.5 3351.07ZM18430.9 3843V1287.27H19049.7V3843H18430.9ZM18069.7 2344.15V1802.26H19441.7V2344.15H18069.7Z"/><path fill="#000" d="M15359 5853.99V4651.99H15860.4C15937.1 4651.99 16001.8 4663.44 16054.5 4686.33C16107.1 4709.23 16146.6 4743.57 16173 4789.36C16200.4 4834.01 16214.2 4888.96 16214.2 4954.21C16214.2 5019.46 16195.9 5074.98 16159.2 5120.77C16123.7 5166.56 16073.9 5198.04 16009.8 5215.21V5180.87C16063.6 5192.32 16110.6 5212.93 16150.6 5242.69C16190.7 5271.31 16221.6 5307.37 16243.4 5350.87C16266.3 5394.37 16277.7 5444.17 16277.7 5500.26C16277.7 5557.5 16268.5 5608.44 16250.2 5653.09C16233.1 5696.59 16206.7 5733.22 16171.2 5762.98C16136.9 5792.75 16095.1 5815.64 16045.9 5831.67C15996.7 5846.55 15940.6 5853.99 15877.6 5853.99H15359ZM15544.5 5675.41H15867.3C15937.1 5675.41 15991.5 5659.95 16030.4 5629.05C16069.4 5598.14 16088.8 5554.06 16088.8 5496.83C16088.8 5461.34 16079.1 5431 16059.6 5405.82C16041.3 5380.63 16015 5361.74 15980.6 5349.15C15946.3 5335.41 15905.7 5328.55 15858.7 5328.55H15544.5V5675.41ZM15544.5 5149.96H15850.1C15884.5 5149.96 15914.8 5143.09 15941.1 5129.36C15968.6 5115.62 15989.8 5096.73 16004.7 5072.69C16020.7 5048.65 16028.7 5021.18 16028.7 4990.27C16028.7 4938.75 16011.6 4899.26 15977.2 4871.79C15942.9 4844.31 15893.6 4830.57 15829.5 4830.57H15544.5V5149.96ZM16527.8 5853.99V4651.99H17285.1V4830.57H16713.3V5675.41H17285.1V5853.99H16527.8ZM16612 5326.83V5148.25H17190.7V5326.83H16612ZM17811 5853.99V4830.57H17474.4V4651.99H18343.3V4830.57H17996.4V5853.99H17811ZM18361.1 5853.99L18826.4 4651.99H19015.3L19477.2 5853.99H19279.8L19005 5129.36C19001.6 5121.34 18994.7 5101.88 18984.4 5070.97C18975.3 5040.07 18964.4 5005.72 18951.8 4967.95C18939.2 4930.17 18927.8 4895.83 18917.5 4864.92C18907.2 4832.86 18900.3 4812.26 18896.8 4803.1L18936.3 4801.38C18929.5 4820.84 18920.9 4845.46 18910.6 4875.22C18901.4 4904.98 18891.1 4936.47 18879.7 4969.66C18869.4 5002.86 18859.1 5034.34 18848.8 5064.11C18838.5 5092.73 18829.9 5116.77 18823 5136.23L18550 5853.99H18361.1ZM18567.2 5555.21L18635.8 5376.63H19181.9L19260.9 5555.21H18567.2Z"/><defs><linearGradient id="paint0_linear_560_922" x1="2112.97" x2="2112.97" y1="2104.8" y2="5801.42" gradientUnits="userSpaceOnUse"><stop stop-color="#FF6900"/><stop offset="1" stop-color="#EFB100"/></linearGradient><linearGradient id="paint1_linear_560_922" x1="4608.19" x2="4608.19" y1="1932.57" y2="3068.21" gradientUnits="userSpaceOnUse"><stop stop-color="#FF6900"/><stop offset="1" stop-color="#EFB100"/></linearGradient><linearGradient id="paint2_linear_560_922" x1="3653.01" x2="3653.01" y1="481.569" y2="2459.06" gradientUnits="userSpaceOnUse"><stop stop-color="#FF6900"/><stop offset="1" stop-color="#EFB100"/></linearGradient></defs></svg>